<?xml version="1.0" encoding="UTF-8" standalone="no"?>
<!DOCTYPE svg PUBLIC "-//W3C//DTD SVG 1.1//EN"
 "http://www.w3.org/Graphics/SVG/1.1/DTD/svg11.dtd">
<!-- Generated by graphviz version 2.43.0 (0)
 -->
<!-- Title: snakemake_dag Pages: 1 -->
<svg width="310pt" height="265pt"
 viewBox="0.00 0.00 310.10 265.00" xmlns="http://www.w3.org/2000/svg" xmlns:xlink="http://www.w3.org/1999/xlink">
<g id="graph0" class="graph" transform="scale(1 1) rotate(0) translate(4 261)">
<title>snakemake_dag</title>
<polygon fill="white" stroke="transparent" points="-4,4 -4,-261 306.1,-261 306.1,4 -4,4"/>
<!-- 0 -->
<g id="node1" class="node">
<title>0</title>
<path fill="none" stroke="#88d856" stroke-width="2" stroke-dasharray="5,2" d="M134.6,-36C134.6,-36 104.6,-36 104.6,-36 98.6,-36 92.6,-30 92.6,-24 92.6,-24 92.6,-12 92.6,-12 92.6,-6 98.6,0 104.6,0 104.6,0 134.6,0 134.6,0 140.6,0 146.6,-6 146.6,-12 146.6,-12 146.6,-24 146.6,-24 146.6,-30 140.6,-36 134.6,-36"/>
<text text-anchor="middle" x="119.6" y="-15.5" font-family="sans" font-size="10.00">all</text>
</g>
<!-- 1 -->
<g id="node2" class="node">
<title>1</title>
<path fill="none" stroke="#d85656" stroke-width="2" stroke-dasharray="5,2" d="M198.1,-257C198.1,-257 51.1,-257 51.1,-257 45.1,-257 39.1,-251 39.1,-245 39.1,-245 39.1,-228 39.1,-228 39.1,-222 45.1,-216 51.1,-216 51.1,-216 198.1,-216 198.1,-216 204.1,-216 210.1,-222 210.1,-228 210.1,-228 210.1,-245 210.1,-245 210.1,-251 204.1,-257 198.1,-257"/>
<text text-anchor="middle" x="124.6" y="-245" font-family="sans" font-size="10.00">run_shapemapper</text>
<text text-anchor="middle" x="124.6" y="-234" font-family="sans" font-size="10.00">sample: GSE279192</text>
<text text-anchor="middle" x="124.6" y="-223" font-family="sans" font-size="10.00">target_name: Hs_DRAIC_ncRNA</text>
</g>
<!-- 1&#45;&gt;0 -->
<g id="edge1" class="edge">
<title>1&#45;&gt;0</title>
<path fill="none" stroke="grey" stroke-width="2" d="M96.59,-215.83C67.52,-193.53 23.81,-154.2 5.6,-108 -0.27,-93.11 -3.01,-85.49 5.6,-72 22.38,-45.68 55.99,-32.23 82.39,-25.48"/>
<polygon fill="grey" stroke="grey" stroke-width="2" points="83.52,-28.81 92.47,-23.13 81.93,-21.99 83.52,-28.81"/>
</g>
<!-- 2 -->
<g id="node3" class="node">
<title>2</title>
<path fill="none" stroke="#d8bc56" stroke-width="2" stroke-dasharray="5,2" d="M124.6,-108C124.6,-108 26.6,-108 26.6,-108 20.6,-108 14.6,-102 14.6,-96 14.6,-96 14.6,-84 14.6,-84 14.6,-78 20.6,-72 26.6,-72 26.6,-72 124.6,-72 124.6,-72 130.6,-72 136.6,-78 136.6,-84 136.6,-84 136.6,-96 136.6,-96 136.6,-102 130.6,-108 124.6,-108"/>
<text text-anchor="middle" x="75.6" y="-87.5" font-family="sans" font-size="10.00">predict_structure_dbn</text>
</g>
<!-- 1&#45;&gt;2 -->
<g id="edge5" class="edge">
<title>1&#45;&gt;2</title>
<path fill="none" stroke="grey" stroke-width="2" d="M117.89,-215.71C109.3,-190.38 94.38,-146.37 84.75,-117.98"/>
<polygon fill="grey" stroke="grey" stroke-width="2" points="87.99,-116.64 81.46,-108.3 81.36,-118.89 87.99,-116.64"/>
</g>
<!-- 3 -->
<g id="node4" class="node">
<title>3</title>
<path fill="none" stroke="#56d88a" stroke-width="2" stroke-dasharray="5,2" d="M202.1,-180C202.1,-180 127.1,-180 127.1,-180 121.1,-180 115.1,-174 115.1,-168 115.1,-168 115.1,-156 115.1,-156 115.1,-150 121.1,-144 127.1,-144 127.1,-144 202.1,-144 202.1,-144 208.1,-144 214.1,-150 214.1,-156 214.1,-156 214.1,-168 214.1,-168 214.1,-174 208.1,-180 202.1,-180"/>
<text text-anchor="middle" x="164.6" y="-159.5" font-family="sans" font-size="10.00">predict_structure</text>
</g>
<!-- 1&#45;&gt;3 -->
<g id="edge6" class="edge">
<title>1&#45;&gt;3</title>
<path fill="none" stroke="grey" stroke-width="2" d="M135.53,-215.69C140.01,-207.56 145.27,-198.03 150.07,-189.33"/>
<polygon fill="grey" stroke="grey" stroke-width="2" points="153.28,-190.77 155.04,-180.32 147.15,-187.38 153.28,-190.77"/>
</g>
<!-- 4 -->
<g id="node5" class="node">
<title>4</title>
<path fill="none" stroke="#56c1d8" stroke-width="2" stroke-dasharray="5,2" d="M290.1,-108C290.1,-108 205.1,-108 205.1,-108 199.1,-108 193.1,-102 193.1,-96 193.1,-96 193.1,-84 193.1,-84 193.1,-78 199.1,-72 205.1,-72 205.1,-72 290.1,-72 290.1,-72 296.1,-72 302.1,-78 302.1,-84 302.1,-84 302.1,-96 302.1,-96 302.1,-102 296.1,-108 290.1,-108"/>
<text text-anchor="middle" x="247.6" y="-87.5" font-family="sans" font-size="10.00">visualize_structure</text>
</g>
<!-- 1&#45;&gt;4 -->
<g id="edge7" class="edge">
<title>1&#45;&gt;4</title>
<path fill="none" stroke="grey" stroke-width="2" d="M176.85,-215.98C193.91,-207.3 211.55,-195.47 223.6,-180 237.39,-162.29 243.27,-137.27 245.77,-118.27"/>
<polygon fill="grey" stroke="grey" stroke-width="2" points="249.27,-118.46 246.87,-108.15 242.31,-117.71 249.27,-118.46"/>
</g>
<!-- 2&#45;&gt;0 -->
<g id="edge2" class="edge">
<title>2&#45;&gt;0</title>
<path fill="none" stroke="grey" stroke-width="2" d="M86.47,-71.7C91.59,-63.56 97.79,-53.69 103.44,-44.7"/>
<polygon fill="grey" stroke="grey" stroke-width="2" points="106.49,-46.43 108.85,-36.1 100.56,-42.71 106.49,-46.43"/>
</g>
<!-- 3&#45;&gt;0 -->
<g id="edge3" class="edge">
<title>3&#45;&gt;0</title>
<path fill="none" stroke="grey" stroke-width="2" d="M162.23,-143.93C159.42,-125.76 154.02,-96.34 145.6,-72 142.48,-62.99 138.2,-53.54 134.01,-45.14"/>
<polygon fill="grey" stroke="grey" stroke-width="2" points="137.08,-43.48 129.38,-36.2 130.87,-46.69 137.08,-43.48"/>
</g>
<!-- 3&#45;&gt;4 -->
<g id="edge8" class="edge">
<title>3&#45;&gt;4</title>
<path fill="none" stroke="grey" stroke-width="2" d="M185.11,-143.7C195.47,-134.97 208.18,-124.24 219.44,-114.75"/>
<polygon fill="grey" stroke="grey" stroke-width="2" points="221.93,-117.23 227.32,-108.1 217.42,-111.88 221.93,-117.23"/>
</g>
<!-- 4&#45;&gt;0 -->
<g id="edge4" class="edge">
<title>4&#45;&gt;0</title>
<path fill="none" stroke="grey" stroke-width="2" d="M216.29,-71.88C197.97,-61.86 174.77,-49.17 155.68,-38.73"/>
<polygon fill="grey" stroke="grey" stroke-width="2" points="157.14,-35.54 146.68,-33.81 153.78,-41.68 157.14,-35.54"/>
</g>
</g>
</svg>
