<?xml version="1.0" encoding="UTF-8" standalone="no"?>
<!DOCTYPE svg PUBLIC "-//W3C//DTD SVG 1.1//EN"
 "http://www.w3.org/Graphics/SVG/1.1/DTD/svg11.dtd">
<!-- Generated by graphviz version 2.43.0 (0)
 -->
<!-- Title: snakemake_dag Pages: 1 -->
<svg width="752pt" height="348pt"
 viewBox="0.00 0.00 751.76 348.00" xmlns="http://www.w3.org/2000/svg" xmlns:xlink="http://www.w3.org/1999/xlink">
<g id="graph0" class="graph" transform="scale(1 1) rotate(0) translate(4 344)">
<title>snakemake_dag</title>
<polygon fill="white" stroke="transparent" points="-4,4 -4,-344 747.76,-344 747.76,4 -4,4"/>
<!-- 0 -->
<g id="node1" class="node">
<title>0</title>
<path fill="none" stroke="#56d8a9" stroke-width="2" d="M406.83,-36C406.83,-36 376.83,-36 376.83,-36 370.83,-36 364.83,-30 364.83,-24 364.83,-24 364.83,-12 364.83,-12 364.83,-6 370.83,0 376.83,0 376.83,0 406.83,0 406.83,0 412.83,0 418.83,-6 418.83,-12 418.83,-12 418.83,-24 418.83,-24 418.83,-30 412.83,-36 406.83,-36"/>
<text text-anchor="middle" x="391.83" y="-15.5" font-family="sans" font-size="10.00">all</text>
</g>
<!-- 1 -->
<g id="node2" class="node">
<title>1</title>
<path fill="none" stroke="#afd856" stroke-width="2" d="M312.33,-268C312.33,-268 31.33,-268 31.33,-268 25.33,-268 19.33,-262 19.33,-256 19.33,-256 19.33,-228 19.33,-228 19.33,-222 25.33,-216 31.33,-216 31.33,-216 312.33,-216 312.33,-216 318.33,-216 324.33,-222 324.33,-228 324.33,-228 324.33,-256 324.33,-256 324.33,-262 318.33,-268 312.33,-268"/>
<text text-anchor="middle" x="171.83" y="-256" font-family="sans" font-size="10.00">run_shapemapper</text>
<text text-anchor="middle" x="171.83" y="-245" font-family="sans" font-size="10.00">output_dir: /mnt1/2.NAS2024/wutan/9.pipe/pack/test/output</text>
<text text-anchor="middle" x="171.83" y="-234" font-family="sans" font-size="10.00">sample: test</text>
<text text-anchor="middle" x="171.83" y="-223" font-family="sans" font-size="10.00">seq_name: APSAMN100</text>
</g>
<!-- 1&#45;&gt;0 -->
<g id="edge1" class="edge">
<title>1&#45;&gt;0</title>
<path fill="none" stroke="grey" stroke-width="2" d="M172.08,-215.73C173.85,-178.97 182.64,-110.92 221.83,-72 257.42,-36.66 316.18,-24.82 354.45,-20.9"/>
<polygon fill="grey" stroke="grey" stroke-width="2" points="355.01,-24.36 364.66,-19.99 354.39,-17.39 355.01,-24.36"/>
</g>
<!-- 4 -->
<g id="node5" class="node">
<title>4</title>
<path fill="none" stroke="#d85656" stroke-width="2" d="M128.83,-180C128.83,-180 30.83,-180 30.83,-180 24.83,-180 18.83,-174 18.83,-168 18.83,-168 18.83,-156 18.83,-156 18.83,-150 24.83,-144 30.83,-144 30.83,-144 128.83,-144 128.83,-144 134.83,-144 140.83,-150 140.83,-156 140.83,-156 140.83,-168 140.83,-168 140.83,-174 134.83,-180 128.83,-180"/>
<text text-anchor="middle" x="79.83" y="-159.5" font-family="sans" font-size="10.00">predict_structure_dbn</text>
</g>
<!-- 1&#45;&gt;4 -->
<g id="edge11" class="edge">
<title>1&#45;&gt;4</title>
<path fill="none" stroke="grey" stroke-width="2" d="M142.21,-215.89C131.24,-206.59 118.85,-196.08 108.01,-186.9"/>
<polygon fill="grey" stroke="grey" stroke-width="2" points="109.97,-183.97 100.08,-180.17 105.44,-189.31 109.97,-183.97"/>
</g>
<!-- 6 -->
<g id="node7" class="node">
<title>6</title>
<path fill="none" stroke="#d8ac56" stroke-width="2" d="M322.33,-180C322.33,-180 247.33,-180 247.33,-180 241.33,-180 235.33,-174 235.33,-168 235.33,-168 235.33,-156 235.33,-156 235.33,-150 241.33,-144 247.33,-144 247.33,-144 322.33,-144 322.33,-144 328.33,-144 334.33,-150 334.33,-156 334.33,-156 334.33,-168 334.33,-168 334.33,-174 328.33,-180 322.33,-180"/>
<text text-anchor="middle" x="284.83" y="-159.5" font-family="sans" font-size="10.00">predict_structure</text>
</g>
<!-- 1&#45;&gt;6 -->
<g id="edge15" class="edge">
<title>1&#45;&gt;6</title>
<path fill="none" stroke="grey" stroke-width="2" d="M208.2,-215.89C222.07,-206.32 237.8,-195.46 251.38,-186.09"/>
<polygon fill="grey" stroke="grey" stroke-width="2" points="253.71,-188.73 259.95,-180.17 249.73,-182.97 253.71,-188.73"/>
</g>
<!-- 8 -->
<g id="node9" class="node">
<title>8</title>
<path fill="none" stroke="#56a9d8" stroke-width="2" d="M327.33,-108C327.33,-108 242.33,-108 242.33,-108 236.33,-108 230.33,-102 230.33,-96 230.33,-96 230.33,-84 230.33,-84 230.33,-78 236.33,-72 242.33,-72 242.33,-72 327.33,-72 327.33,-72 333.33,-72 339.33,-78 339.33,-84 339.33,-84 339.33,-96 339.33,-96 339.33,-102 333.33,-108 327.33,-108"/>
<text text-anchor="middle" x="284.83" y="-87.5" font-family="sans" font-size="10.00">visualize_structure</text>
</g>
<!-- 1&#45;&gt;8 -->
<g id="edge19" class="edge">
<title>1&#45;&gt;8</title>
<path fill="none" stroke="grey" stroke-width="2" d="M183.4,-215.74C193.37,-195.32 208.96,-166.4 226.83,-144 235.15,-133.56 245.58,-123.36 255.29,-114.74"/>
<polygon fill="grey" stroke="grey" stroke-width="2" points="257.6,-117.38 262.88,-108.19 253.02,-112.08 257.6,-117.38"/>
</g>
<!-- 2 -->
<g id="node3" class="node">
<title>2</title>
<path fill="none" stroke="#59d856" stroke-width="2" d="M432.83,-340C432.83,-340 310.83,-340 310.83,-340 304.83,-340 298.83,-334 298.83,-328 298.83,-328 298.83,-316 298.83,-316 298.83,-310 304.83,-304 310.83,-304 310.83,-304 432.83,-304 432.83,-304 438.83,-304 444.83,-310 444.83,-316 444.83,-316 444.83,-328 444.83,-328 444.83,-334 438.83,-340 432.83,-340"/>
<text text-anchor="middle" x="371.83" y="-319.5" font-family="sans" font-size="10.00">split_reference_sequences</text>
</g>
<!-- 2&#45;&gt;1 -->
<g id="edge9" class="edge">
<title>2&#45;&gt;1</title>
<path fill="none" stroke="grey" stroke-width="2" d="M327.94,-303.88C303.87,-294.5 273.39,-282.61 245.76,-271.83"/>
<polygon fill="grey" stroke="grey" stroke-width="2" points="246.71,-268.45 236.12,-268.07 244.17,-274.97 246.71,-268.45"/>
</g>
<!-- 3 -->
<g id="node4" class="node">
<title>3</title>
<path fill="none" stroke="#afd856" stroke-width="2" d="M712.33,-268C712.33,-268 431.33,-268 431.33,-268 425.33,-268 419.33,-262 419.33,-256 419.33,-256 419.33,-228 419.33,-228 419.33,-222 425.33,-216 431.33,-216 431.33,-216 712.33,-216 712.33,-216 718.33,-216 724.33,-222 724.33,-228 724.33,-228 724.33,-256 724.33,-256 724.33,-262 718.33,-268 712.33,-268"/>
<text text-anchor="middle" x="571.83" y="-256" font-family="sans" font-size="10.00">run_shapemapper</text>
<text text-anchor="middle" x="571.83" y="-245" font-family="sans" font-size="10.00">output_dir: /mnt1/2.NAS2024/wutan/9.pipe/pack/test/output</text>
<text text-anchor="middle" x="571.83" y="-234" font-family="sans" font-size="10.00">sample: test</text>
<text text-anchor="middle" x="571.83" y="-223" font-family="sans" font-size="10.00">seq_name: APSAMN101</text>
</g>
<!-- 2&#45;&gt;3 -->
<g id="edge10" class="edge">
<title>2&#45;&gt;3</title>
<path fill="none" stroke="grey" stroke-width="2" d="M415.72,-303.88C439.79,-294.5 470.27,-282.61 497.89,-271.83"/>
<polygon fill="grey" stroke="grey" stroke-width="2" points="499.49,-274.97 507.53,-268.07 496.94,-268.45 499.49,-274.97"/>
</g>
<!-- 2&#45;&gt;4 -->
<g id="edge12" class="edge">
<title>2&#45;&gt;4</title>
<path fill="none" stroke="grey" stroke-width="2" d="M298.57,-321.1C203.77,-319.48 46.38,-310.29 9.83,-268 -5.29,-250.51 -0.46,-236.69 9.83,-216 15.83,-203.93 26.04,-193.87 36.84,-185.88"/>
<polygon fill="grey" stroke="grey" stroke-width="2" points="38.88,-188.71 45.14,-180.17 34.92,-182.95 38.88,-188.71"/>
</g>
<!-- 5 -->
<g id="node6" class="node">
<title>5</title>
<path fill="none" stroke="#d85656" stroke-width="2" d="M462.83,-180C462.83,-180 364.83,-180 364.83,-180 358.83,-180 352.83,-174 352.83,-168 352.83,-168 352.83,-156 352.83,-156 352.83,-150 358.83,-144 364.83,-144 364.83,-144 462.83,-144 462.83,-144 468.83,-144 474.83,-150 474.83,-156 474.83,-156 474.83,-168 474.83,-168 474.83,-174 468.83,-180 462.83,-180"/>
<text text-anchor="middle" x="413.83" y="-159.5" font-family="sans" font-size="10.00">predict_structure_dbn</text>
</g>
<!-- 2&#45;&gt;5 -->
<g id="edge14" class="edge">
<title>2&#45;&gt;5</title>
<path fill="none" stroke="grey" stroke-width="2" d="M376.4,-303.79C383.69,-276.37 398,-222.53 406.66,-189.96"/>
<polygon fill="grey" stroke="grey" stroke-width="2" points="410.07,-190.75 409.26,-180.19 403.31,-188.95 410.07,-190.75"/>
</g>
<!-- 2&#45;&gt;6 -->
<g id="edge16" class="edge">
<title>2&#45;&gt;6</title>
<path fill="none" stroke="grey" stroke-width="2" d="M367.84,-303.7C362.36,-282.09 351.16,-244.48 333.83,-216 327.64,-205.84 319.31,-195.92 311.26,-187.47"/>
<polygon fill="grey" stroke="grey" stroke-width="2" points="313.55,-184.81 304.03,-180.15 308.57,-189.73 313.55,-184.81"/>
</g>
<!-- 7 -->
<g id="node8" class="node">
<title>7</title>
<path fill="none" stroke="#d8ac56" stroke-width="2" d="M696.33,-180C696.33,-180 621.33,-180 621.33,-180 615.33,-180 609.33,-174 609.33,-168 609.33,-168 609.33,-156 609.33,-156 609.33,-150 615.33,-144 621.33,-144 621.33,-144 696.33,-144 696.33,-144 702.33,-144 708.33,-150 708.33,-156 708.33,-156 708.33,-168 708.33,-168 708.33,-174 702.33,-180 696.33,-180"/>
<text text-anchor="middle" x="658.83" y="-159.5" font-family="sans" font-size="10.00">predict_structure</text>
</g>
<!-- 2&#45;&gt;7 -->
<g id="edge18" class="edge">
<title>2&#45;&gt;7</title>
<path fill="none" stroke="grey" stroke-width="2" d="M445.08,-321.1C539.88,-319.48 697.28,-310.29 733.83,-268 748.94,-250.51 744.45,-236.52 733.83,-216 727.46,-203.7 716.78,-193.65 705.44,-185.73"/>
<polygon fill="grey" stroke="grey" stroke-width="2" points="707.01,-182.58 696.71,-180.09 703.21,-188.46 707.01,-182.58"/>
</g>
<!-- 3&#45;&gt;0 -->
<g id="edge2" class="edge">
<title>3&#45;&gt;0</title>
<path fill="none" stroke="grey" stroke-width="2" d="M551.53,-215.97C516.88,-173.23 446.71,-86.69 412.09,-43.99"/>
<polygon fill="grey" stroke="grey" stroke-width="2" points="414.67,-41.62 405.66,-36.06 409.23,-46.03 414.67,-41.62"/>
</g>
<!-- 3&#45;&gt;5 -->
<g id="edge13" class="edge">
<title>3&#45;&gt;5</title>
<path fill="none" stroke="grey" stroke-width="2" d="M520.96,-215.89C500.56,-205.82 477.28,-194.32 457.64,-184.63"/>
<polygon fill="grey" stroke="grey" stroke-width="2" points="459.12,-181.46 448.61,-180.17 456.02,-187.74 459.12,-181.46"/>
</g>
<!-- 3&#45;&gt;7 -->
<g id="edge17" class="edge">
<title>3&#45;&gt;7</title>
<path fill="none" stroke="grey" stroke-width="2" d="M599.83,-215.89C610.2,-206.59 621.93,-196.08 632.17,-186.9"/>
<polygon fill="grey" stroke="grey" stroke-width="2" points="634.57,-189.45 639.68,-180.17 629.89,-184.24 634.57,-189.45"/>
</g>
<!-- 9 -->
<g id="node10" class="node">
<title>9</title>
<path fill="none" stroke="#56a9d8" stroke-width="2" d="M620.33,-108C620.33,-108 535.33,-108 535.33,-108 529.33,-108 523.33,-102 523.33,-96 523.33,-96 523.33,-84 523.33,-84 523.33,-78 529.33,-72 535.33,-72 535.33,-72 620.33,-72 620.33,-72 626.33,-72 632.33,-78 632.33,-84 632.33,-84 632.33,-96 632.33,-96 632.33,-102 626.33,-108 620.33,-108"/>
<text text-anchor="middle" x="577.83" y="-87.5" font-family="sans" font-size="10.00">visualize_structure</text>
</g>
<!-- 3&#45;&gt;9 -->
<g id="edge21" class="edge">
<title>3&#45;&gt;9</title>
<path fill="none" stroke="grey" stroke-width="2" d="M572.83,-215.89C573.91,-188.95 575.62,-146.27 576.73,-118.45"/>
<polygon fill="grey" stroke="grey" stroke-width="2" points="580.23,-118.36 577.14,-108.23 573.24,-118.08 580.23,-118.36"/>
</g>
<!-- 4&#45;&gt;0 -->
<g id="edge3" class="edge">
<title>4&#45;&gt;0</title>
<path fill="none" stroke="grey" stroke-width="2" d="M89.59,-143.65C102.02,-123.22 125.46,-89.82 154.83,-72 217.8,-33.8 305.18,-23.06 354.34,-20.08"/>
<polygon fill="grey" stroke="grey" stroke-width="2" points="354.72,-23.57 364.52,-19.55 354.35,-16.58 354.72,-23.57"/>
</g>
<!-- 5&#45;&gt;0 -->
<g id="edge4" class="edge">
<title>5&#45;&gt;0</title>
<path fill="none" stroke="grey" stroke-width="2" d="M411.17,-143.87C407.42,-119.67 400.54,-75.21 396.07,-46.39"/>
<polygon fill="grey" stroke="grey" stroke-width="2" points="399.48,-45.54 394.49,-36.19 392.56,-46.61 399.48,-45.54"/>
</g>
<!-- 6&#45;&gt;0 -->
<g id="edge5" class="edge">
<title>6&#45;&gt;0</title>
<path fill="none" stroke="grey" stroke-width="2" d="M310.47,-143.79C323.17,-134.33 338.06,-121.74 348.83,-108 363.63,-89.11 375.09,-64.29 382.45,-45.67"/>
<polygon fill="grey" stroke="grey" stroke-width="2" points="385.73,-46.88 386.01,-36.29 379.18,-44.4 385.73,-46.88"/>
</g>
<!-- 6&#45;&gt;8 -->
<g id="edge20" class="edge">
<title>6&#45;&gt;8</title>
<path fill="none" stroke="grey" stroke-width="2" d="M284.83,-143.7C284.83,-135.98 284.83,-126.71 284.83,-118.11"/>
<polygon fill="grey" stroke="grey" stroke-width="2" points="288.33,-118.1 284.83,-108.1 281.33,-118.1 288.33,-118.1"/>
</g>
<!-- 7&#45;&gt;0 -->
<g id="edge6" class="edge">
<title>7&#45;&gt;0</title>
<path fill="none" stroke="grey" stroke-width="2" d="M660.72,-143.73C661.88,-123.69 660.43,-90.99 641.83,-72 612.62,-42.2 491.34,-27.57 429.08,-21.92"/>
<polygon fill="grey" stroke="grey" stroke-width="2" points="429.16,-18.41 418.89,-21.02 428.55,-25.38 429.16,-18.41"/>
</g>
<!-- 7&#45;&gt;9 -->
<g id="edge22" class="edge">
<title>7&#45;&gt;9</title>
<path fill="none" stroke="grey" stroke-width="2" d="M638.8,-143.7C628.7,-134.97 616.29,-124.24 605.31,-114.75"/>
<polygon fill="grey" stroke="grey" stroke-width="2" points="607.47,-111.99 597.62,-108.1 602.9,-117.29 607.47,-111.99"/>
</g>
<!-- 8&#45;&gt;0 -->
<g id="edge7" class="edge">
<title>8&#45;&gt;0</title>
<path fill="none" stroke="grey" stroke-width="2" d="M311,-71.88C324.86,-62.81 342.07,-51.55 357.04,-41.76"/>
<polygon fill="grey" stroke="grey" stroke-width="2" points="359.1,-44.59 365.55,-36.19 355.27,-38.74 359.1,-44.59"/>
</g>
<!-- 9&#45;&gt;0 -->
<g id="edge8" class="edge">
<title>9&#45;&gt;0</title>
<path fill="none" stroke="grey" stroke-width="2" d="M532.33,-71.88C500.44,-59.88 458.37,-44.04 428.6,-32.84"/>
<polygon fill="grey" stroke="grey" stroke-width="2" points="429.6,-29.48 419.01,-29.23 427.14,-36.03 429.6,-29.48"/>
</g>
</g>
</svg>
