<?xml version="1.0" encoding="UTF-8" standalone="no"?>
<!DOCTYPE svg PUBLIC "-//W3C//DTD SVG 1.1//EN"
 "http://www.w3.org/Graphics/SVG/1.1/DTD/svg11.dtd">
<!-- Generated by graphviz version 2.43.0 (0)
 -->
<!-- Title: snakemake_dag Pages: 1 -->
<svg width="947pt" height="348pt"
 viewBox="0.00 0.00 947.14 348.00" xmlns="http://www.w3.org/2000/svg" xmlns:xlink="http://www.w3.org/1999/xlink">
<g id="graph0" class="graph" transform="scale(1 1) rotate(0) translate(4 344)">
<title>snakemake_dag</title>
<polygon fill="white" stroke="transparent" points="-4,4 -4,-344 943.14,-344 943.14,4 -4,4"/>
<!-- 0 -->
<g id="node1" class="node">
<title>0</title>
<path fill="none" stroke="#d8cb56" stroke-width="2" stroke-dasharray="5,2" d="M476.31,-36C476.31,-36 446.31,-36 446.31,-36 440.31,-36 434.31,-30 434.31,-24 434.31,-24 434.31,-12 434.31,-12 434.31,-6 440.31,0 446.31,0 446.31,0 476.31,0 476.31,0 482.31,0 488.31,-6 488.31,-12 488.31,-12 488.31,-24 488.31,-24 488.31,-30 482.31,-36 476.31,-36"/>
<text text-anchor="middle" x="461.31" y="-15.5" font-family="sans" font-size="10.00">all</text>
</g>
<!-- 1 -->
<g id="node2" class="node">
<title>1</title>
<path fill="none" stroke="#5692d8" stroke-width="2" stroke-dasharray="5,2" d="M312.81,-268C312.81,-268 31.81,-268 31.81,-268 25.81,-268 19.81,-262 19.81,-256 19.81,-256 19.81,-228 19.81,-228 19.81,-222 25.81,-216 31.81,-216 31.81,-216 312.81,-216 312.81,-216 318.81,-216 324.81,-222 324.81,-228 324.81,-228 324.81,-256 324.81,-256 324.81,-262 318.81,-268 312.81,-268"/>
<text text-anchor="middle" x="172.31" y="-256" font-family="sans" font-size="10.00">run_shapemapper</text>
<text text-anchor="middle" x="172.31" y="-245" font-family="sans" font-size="10.00">output_dir: /mnt1/2.NAS2024/wutan/9.pipe/pack/test/output</text>
<text text-anchor="middle" x="172.31" y="-234" font-family="sans" font-size="10.00">sample: test</text>
<text text-anchor="middle" x="172.31" y="-223" font-family="sans" font-size="10.00">seq_name: APSAMN100</text>
</g>
<!-- 1&#45;&gt;0 -->
<g id="edge1" class="edge">
<title>1&#45;&gt;0</title>
<path fill="none" stroke="grey" stroke-width="2" d="M199.45,-215.85C221.51,-195.76 253.71,-167.22 283.31,-144 331.38,-106.29 389.79,-66.32 426.26,-42.01"/>
<polygon fill="grey" stroke="grey" stroke-width="2" points="428.65,-44.62 435.05,-36.17 424.78,-38.79 428.65,-44.62"/>
</g>
<!-- 4 -->
<g id="node5" class="node">
<title>4</title>
<path fill="none" stroke="#70d856" stroke-width="2" stroke-dasharray="5,2" d="M402.31,-180C402.31,-180 304.31,-180 304.31,-180 298.31,-180 292.31,-174 292.31,-168 292.31,-168 292.31,-156 292.31,-156 292.31,-150 298.31,-144 304.31,-144 304.31,-144 402.31,-144 402.31,-144 408.31,-144 414.31,-150 414.31,-156 414.31,-156 414.31,-168 414.31,-168 414.31,-174 408.31,-180 402.31,-180"/>
<text text-anchor="middle" x="353.31" y="-159.5" font-family="sans" font-size="10.00">predict_structure_dbn</text>
</g>
<!-- 1&#45;&gt;4 -->
<g id="edge12" class="edge">
<title>1&#45;&gt;4</title>
<path fill="none" stroke="grey" stroke-width="2" d="M230.58,-215.89C254.36,-205.64 281.56,-193.92 304.3,-184.12"/>
<polygon fill="grey" stroke="grey" stroke-width="2" points="305.95,-187.22 313.75,-180.05 303.18,-180.79 305.95,-187.22"/>
</g>
<!-- 6 -->
<g id="node7" class="node">
<title>6</title>
<path fill="none" stroke="#56d873" stroke-width="2" stroke-dasharray="5,2" d="M137.81,-180C137.81,-180 62.81,-180 62.81,-180 56.81,-180 50.81,-174 50.81,-168 50.81,-168 50.81,-156 50.81,-156 50.81,-150 56.81,-144 62.81,-144 62.81,-144 137.81,-144 137.81,-144 143.81,-144 149.81,-150 149.81,-156 149.81,-156 149.81,-168 149.81,-168 149.81,-174 143.81,-180 137.81,-180"/>
<text text-anchor="middle" x="100.31" y="-159.5" font-family="sans" font-size="10.00">predict_structure</text>
</g>
<!-- 1&#45;&gt;6 -->
<g id="edge16" class="edge">
<title>1&#45;&gt;6</title>
<path fill="none" stroke="grey" stroke-width="2" d="M149.13,-215.89C140.87,-206.94 131.56,-196.86 123.31,-187.92"/>
<polygon fill="grey" stroke="grey" stroke-width="2" points="125.74,-185.38 116.38,-180.41 120.59,-190.13 125.74,-185.38"/>
</g>
<!-- 8 -->
<g id="node9" class="node">
<title>8</title>
<path fill="none" stroke="#56d8a9" stroke-width="2" stroke-dasharray="5,2" d="M223.81,-108C223.81,-108 138.81,-108 138.81,-108 132.81,-108 126.81,-102 126.81,-96 126.81,-96 126.81,-84 126.81,-84 126.81,-78 132.81,-72 138.81,-72 138.81,-72 223.81,-72 223.81,-72 229.81,-72 235.81,-78 235.81,-84 235.81,-84 235.81,-96 235.81,-96 235.81,-102 229.81,-108 223.81,-108"/>
<text text-anchor="middle" x="181.31" y="-87.5" font-family="sans" font-size="10.00">visualize_structure</text>
</g>
<!-- 1&#45;&gt;8 -->
<g id="edge20" class="edge">
<title>1&#45;&gt;8</title>
<path fill="none" stroke="grey" stroke-width="2" d="M173.82,-215.89C175.43,-188.95 177.99,-146.27 179.66,-118.45"/>
<polygon fill="grey" stroke="grey" stroke-width="2" points="183.17,-118.42 180.28,-108.23 176.18,-118 183.17,-118.42"/>
</g>
<!-- 10 -->
<g id="node11" class="node">
<title>10</title>
<path fill="none" stroke="#d88d56" stroke-width="2" stroke-dasharray="5,2" d="M476.31,-180C476.31,-180 446.31,-180 446.31,-180 440.31,-180 434.31,-174 434.31,-168 434.31,-168 434.31,-156 434.31,-156 434.31,-150 440.31,-144 446.31,-144 446.31,-144 476.31,-144 476.31,-144 482.31,-144 488.31,-150 488.31,-156 488.31,-156 488.31,-168 488.31,-168 488.31,-174 482.31,-180 476.31,-180"/>
<text text-anchor="middle" x="461.31" y="-159.5" font-family="sans" font-size="10.00">multiqc</text>
</g>
<!-- 1&#45;&gt;10 -->
<g id="edge26" class="edge">
<title>1&#45;&gt;10</title>
<path fill="none" stroke="grey" stroke-width="2" d="M294.88,-215.93C336.15,-206.24 382.15,-194.08 423.31,-180 423.76,-179.85 424.2,-179.69 424.65,-179.53"/>
<polygon fill="grey" stroke="grey" stroke-width="2" points="426.09,-182.73 434.15,-175.86 423.56,-176.2 426.09,-182.73"/>
</g>
<!-- 2 -->
<g id="node3" class="node">
<title>2</title>
<path fill="none" stroke="#d85656" stroke-width="2" stroke-dasharray="5,2" d="M530.31,-340C530.31,-340 408.31,-340 408.31,-340 402.31,-340 396.31,-334 396.31,-328 396.31,-328 396.31,-316 396.31,-316 396.31,-310 402.31,-304 408.31,-304 408.31,-304 530.31,-304 530.31,-304 536.31,-304 542.31,-310 542.31,-316 542.31,-316 542.31,-328 542.31,-328 542.31,-334 536.31,-340 530.31,-340"/>
<text text-anchor="middle" x="469.31" y="-319.5" font-family="sans" font-size="10.00">split_reference_sequences</text>
</g>
<!-- 2&#45;&gt;1 -->
<g id="edge10" class="edge">
<title>2&#45;&gt;1</title>
<path fill="none" stroke="grey" stroke-width="2" d="M404.5,-303.98C367.37,-294.23 319.87,-281.75 277.52,-270.63"/>
<polygon fill="grey" stroke="grey" stroke-width="2" points="278.29,-267.21 267.72,-268.06 276.51,-273.98 278.29,-267.21"/>
</g>
<!-- 3 -->
<g id="node4" class="node">
<title>3</title>
<path fill="none" stroke="#5692d8" stroke-width="2" stroke-dasharray="5,2" d="M906.81,-268C906.81,-268 625.81,-268 625.81,-268 619.81,-268 613.81,-262 613.81,-256 613.81,-256 613.81,-228 613.81,-228 613.81,-222 619.81,-216 625.81,-216 625.81,-216 906.81,-216 906.81,-216 912.81,-216 918.81,-222 918.81,-228 918.81,-228 918.81,-256 918.81,-256 918.81,-262 912.81,-268 906.81,-268"/>
<text text-anchor="middle" x="766.31" y="-256" font-family="sans" font-size="10.00">run_shapemapper</text>
<text text-anchor="middle" x="766.31" y="-245" font-family="sans" font-size="10.00">output_dir: /mnt1/2.NAS2024/wutan/9.pipe/pack/test/output</text>
<text text-anchor="middle" x="766.31" y="-234" font-family="sans" font-size="10.00">sample: test</text>
<text text-anchor="middle" x="766.31" y="-223" font-family="sans" font-size="10.00">seq_name: APSAMN101</text>
</g>
<!-- 2&#45;&gt;3 -->
<g id="edge11" class="edge">
<title>2&#45;&gt;3</title>
<path fill="none" stroke="grey" stroke-width="2" d="M534.12,-303.98C571.25,-294.23 618.75,-281.75 661.1,-270.63"/>
<polygon fill="grey" stroke="grey" stroke-width="2" points="662.12,-273.98 670.9,-268.06 660.34,-267.21 662.12,-273.98"/>
</g>
<!-- 2&#45;&gt;4 -->
<g id="edge13" class="edge">
<title>2&#45;&gt;4</title>
<path fill="none" stroke="grey" stroke-width="2" d="M419.76,-303.85C402.61,-295.56 384.82,-283.88 373.31,-268 356.95,-245.43 352.9,-213.2 352.35,-190.41"/>
<polygon fill="grey" stroke="grey" stroke-width="2" points="355.85,-190.36 352.32,-180.37 348.85,-190.38 355.85,-190.36"/>
</g>
<!-- 5 -->
<g id="node6" class="node">
<title>5</title>
<path fill="none" stroke="#70d856" stroke-width="2" stroke-dasharray="5,2" d="M838.31,-180C838.31,-180 740.31,-180 740.31,-180 734.31,-180 728.31,-174 728.31,-168 728.31,-168 728.31,-156 728.31,-156 728.31,-150 734.31,-144 740.31,-144 740.31,-144 838.31,-144 838.31,-144 844.31,-144 850.31,-150 850.31,-156 850.31,-156 850.31,-168 850.31,-168 850.31,-174 844.31,-180 838.31,-180"/>
<text text-anchor="middle" x="789.31" y="-159.5" font-family="sans" font-size="10.00">predict_structure_dbn</text>
</g>
<!-- 2&#45;&gt;5 -->
<g id="edge15" class="edge">
<title>2&#45;&gt;5</title>
<path fill="none" stroke="grey" stroke-width="2" d="M542.48,-317.8C665.56,-311.66 903.13,-296.26 928.31,-268 943.69,-250.75 941.42,-235.03 928.31,-216 912.72,-193.37 886.08,-180.4 860.26,-172.96"/>
<polygon fill="grey" stroke="grey" stroke-width="2" points="860.99,-169.53 850.43,-170.37 859.21,-176.3 860.99,-169.53"/>
</g>
<!-- 2&#45;&gt;6 -->
<g id="edge17" class="edge">
<title>2&#45;&gt;6</title>
<path fill="none" stroke="grey" stroke-width="2" d="M396.14,-317.8C273.06,-311.66 35.5,-296.26 10.31,-268 -5.06,-250.75 -1.16,-236.06 10.31,-216 17.77,-202.95 29.83,-192.8 42.73,-185.03"/>
<polygon fill="grey" stroke="grey" stroke-width="2" points="44.71,-187.94 51.75,-180.03 41.31,-181.82 44.71,-187.94"/>
</g>
<!-- 7 -->
<g id="node8" class="node">
<title>7</title>
<path fill="none" stroke="#56d873" stroke-width="2" stroke-dasharray="5,2" d="M621.81,-180C621.81,-180 546.81,-180 546.81,-180 540.81,-180 534.81,-174 534.81,-168 534.81,-168 534.81,-156 534.81,-156 534.81,-150 540.81,-144 546.81,-144 546.81,-144 621.81,-144 621.81,-144 627.81,-144 633.81,-150 633.81,-156 633.81,-156 633.81,-168 633.81,-168 633.81,-174 627.81,-180 621.81,-180"/>
<text text-anchor="middle" x="584.31" y="-159.5" font-family="sans" font-size="10.00">predict_structure</text>
</g>
<!-- 2&#45;&gt;7 -->
<g id="edge19" class="edge">
<title>2&#45;&gt;7</title>
<path fill="none" stroke="grey" stroke-width="2" d="M519.78,-303.95C537.05,-295.69 554.88,-284.01 566.31,-268 582.46,-245.39 585.85,-213.17 585.9,-190.39"/>
<polygon fill="grey" stroke="grey" stroke-width="2" points="589.4,-190.29 585.71,-180.36 582.4,-190.42 589.4,-190.29"/>
</g>
<!-- 3&#45;&gt;0 -->
<g id="edge2" class="edge">
<title>3&#45;&gt;0</title>
<path fill="none" stroke="grey" stroke-width="2" d="M746.21,-215.8C737.72,-204.92 727.84,-191.98 719.31,-180 685.98,-133.22 694.64,-105.97 648.31,-72 603.38,-39.05 538.61,-26.56 498.29,-21.84"/>
<polygon fill="grey" stroke="grey" stroke-width="2" points="498.66,-18.36 488.34,-20.77 497.91,-25.32 498.66,-18.36"/>
</g>
<!-- 3&#45;&gt;5 -->
<g id="edge14" class="edge">
<title>3&#45;&gt;5</title>
<path fill="none" stroke="grey" stroke-width="2" d="M773.72,-215.89C776.14,-207.66 778.85,-198.48 781.32,-190.1"/>
<polygon fill="grey" stroke="grey" stroke-width="2" points="784.71,-190.99 784.18,-180.41 777.99,-189.01 784.71,-190.99"/>
</g>
<!-- 3&#45;&gt;7 -->
<g id="edge18" class="edge">
<title>3&#45;&gt;7</title>
<path fill="none" stroke="grey" stroke-width="2" d="M707.97,-216C683.94,-205.7 656.4,-193.9 633.42,-184.05"/>
<polygon fill="grey" stroke="grey" stroke-width="2" points="634.78,-180.82 624.2,-180.1 632.02,-187.25 634.78,-180.82"/>
</g>
<!-- 9 -->
<g id="node10" class="node">
<title>9</title>
<path fill="none" stroke="#56d8a9" stroke-width="2" stroke-dasharray="5,2" d="M626.81,-108C626.81,-108 541.81,-108 541.81,-108 535.81,-108 529.81,-102 529.81,-96 529.81,-96 529.81,-84 529.81,-84 529.81,-78 535.81,-72 541.81,-72 541.81,-72 626.81,-72 626.81,-72 632.81,-72 638.81,-78 638.81,-84 638.81,-84 638.81,-96 638.81,-96 638.81,-102 632.81,-108 626.81,-108"/>
<text text-anchor="middle" x="584.31" y="-87.5" font-family="sans" font-size="10.00">visualize_structure</text>
</g>
<!-- 3&#45;&gt;9 -->
<g id="edge22" class="edge">
<title>3&#45;&gt;9</title>
<path fill="none" stroke="grey" stroke-width="2" d="M732.45,-215.96C718.06,-205.12 701.2,-192.15 686.31,-180 660.11,-158.62 631.14,-133.15 610.79,-114.95"/>
<polygon fill="grey" stroke="grey" stroke-width="2" points="612.94,-112.19 603.16,-108.11 608.27,-117.4 612.94,-112.19"/>
</g>
<!-- 3&#45;&gt;10 -->
<g id="edge27" class="edge">
<title>3&#45;&gt;10</title>
<path fill="none" stroke="grey" stroke-width="2" d="M667.02,-215.93C623.78,-204.97 572.52,-191.91 526.31,-180 517.28,-177.67 507.56,-175.14 498.45,-172.76"/>
<polygon fill="grey" stroke="grey" stroke-width="2" points="499.06,-169.3 488.5,-170.16 497.29,-176.07 499.06,-169.3"/>
</g>
<!-- 4&#45;&gt;0 -->
<g id="edge3" class="edge">
<title>4&#45;&gt;0</title>
<path fill="none" stroke="grey" stroke-width="2" d="M366.34,-143.87C385.15,-119.14 420.06,-73.24 441.91,-44.51"/>
<polygon fill="grey" stroke="grey" stroke-width="2" points="444.97,-46.27 448.24,-36.19 439.4,-42.03 444.97,-46.27"/>
</g>
<!-- 5&#45;&gt;0 -->
<g id="edge4" class="edge">
<title>5&#45;&gt;0</title>
<path fill="none" stroke="grey" stroke-width="2" d="M779.81,-143.94C767.47,-123.48 743.97,-89.72 714.31,-72 645.83,-31.09 550.47,-21.44 498.58,-19.36"/>
<polygon fill="grey" stroke="grey" stroke-width="2" points="498.6,-15.86 488.49,-19.03 498.37,-22.86 498.6,-15.86"/>
</g>
<!-- 6&#45;&gt;0 -->
<g id="edge5" class="edge">
<title>6&#45;&gt;0</title>
<path fill="none" stroke="grey" stroke-width="2" d="M98.48,-143.88C97.35,-123.68 98.93,-90.51 118.31,-72 161.64,-30.63 344.56,-21.55 424.11,-19.56"/>
<polygon fill="grey" stroke="grey" stroke-width="2" points="424.26,-23.06 434.18,-19.33 424.1,-16.06 424.26,-23.06"/>
</g>
<!-- 6&#45;&gt;8 -->
<g id="edge21" class="edge">
<title>6&#45;&gt;8</title>
<path fill="none" stroke="grey" stroke-width="2" d="M120.33,-143.7C130.44,-134.97 142.85,-124.24 153.83,-114.75"/>
<polygon fill="grey" stroke="grey" stroke-width="2" points="156.24,-117.29 161.52,-108.1 151.66,-111.99 156.24,-117.29"/>
</g>
<!-- 7&#45;&gt;0 -->
<g id="edge6" class="edge">
<title>7&#45;&gt;0</title>
<path fill="none" stroke="grey" stroke-width="2" d="M560.79,-143.77C548.31,-134.03 533.16,-121.18 521.31,-108 503.73,-88.44 487.29,-63.39 476.09,-44.85"/>
<polygon fill="grey" stroke="grey" stroke-width="2" points="478.99,-42.89 470.87,-36.07 472.97,-46.46 478.99,-42.89"/>
</g>
<!-- 7&#45;&gt;9 -->
<g id="edge23" class="edge">
<title>7&#45;&gt;9</title>
<path fill="none" stroke="grey" stroke-width="2" d="M584.31,-143.7C584.31,-135.98 584.31,-126.71 584.31,-118.11"/>
<polygon fill="grey" stroke="grey" stroke-width="2" points="587.81,-118.1 584.31,-108.1 580.81,-118.1 587.81,-118.1"/>
</g>
<!-- 8&#45;&gt;0 -->
<g id="edge7" class="edge">
<title>8&#45;&gt;0</title>
<path fill="none" stroke="grey" stroke-width="2" d="M235.96,-75.34C291.53,-61.44 376.11,-40.3 424.29,-28.26"/>
<polygon fill="grey" stroke="grey" stroke-width="2" points="425.14,-31.65 434,-25.83 423.45,-24.86 425.14,-31.65"/>
</g>
<!-- 9&#45;&gt;0 -->
<g id="edge8" class="edge">
<title>9&#45;&gt;0</title>
<path fill="none" stroke="grey" stroke-width="2" d="M554.22,-71.88C537.14,-62.16 515.65,-49.92 497.63,-39.67"/>
<polygon fill="grey" stroke="grey" stroke-width="2" points="498.99,-36.42 488.57,-34.51 495.53,-42.5 498.99,-36.42"/>
</g>
<!-- 10&#45;&gt;0 -->
<g id="edge9" class="edge">
<title>10&#45;&gt;0</title>
<path fill="none" stroke="grey" stroke-width="2" d="M461.31,-143.87C461.31,-119.67 461.31,-75.21 461.31,-46.39"/>
<polygon fill="grey" stroke="grey" stroke-width="2" points="464.81,-46.19 461.31,-36.19 457.81,-46.19 464.81,-46.19"/>
</g>
<!-- 11 -->
<g id="node12" class="node">
<title>11</title>
<path fill="none" stroke="#afd856" stroke-width="2" stroke-dasharray="5,2" d="M446.81,-260C446.81,-260 393.81,-260 393.81,-260 387.81,-260 381.81,-254 381.81,-248 381.81,-248 381.81,-236 381.81,-236 381.81,-230 387.81,-224 393.81,-224 393.81,-224 446.81,-224 446.81,-224 452.81,-224 458.81,-230 458.81,-236 458.81,-236 458.81,-248 458.81,-248 458.81,-254 452.81,-260 446.81,-260"/>
<text text-anchor="middle" x="420.31" y="-245" font-family="sans" font-size="10.00">qc_modified</text>
<text text-anchor="middle" x="420.31" y="-234" font-family="sans" font-size="10.00">sample: test</text>
</g>
<!-- 11&#45;&gt;10 -->
<g id="edge24" class="edge">
<title>11&#45;&gt;10</title>
<path fill="none" stroke="grey" stroke-width="2" d="M429.41,-223.69C434.72,-213.59 441.52,-200.65 447.48,-189.31"/>
<polygon fill="grey" stroke="grey" stroke-width="2" points="450.68,-190.74 452.24,-180.26 444.49,-187.49 450.68,-190.74"/>
</g>
<!-- 12 -->
<g id="node13" class="node">
<title>12</title>
<path fill="none" stroke="#56c9d8" stroke-width="2" stroke-dasharray="5,2" d="M545.31,-260C545.31,-260 489.31,-260 489.31,-260 483.31,-260 477.31,-254 477.31,-248 477.31,-248 477.31,-236 477.31,-236 477.31,-230 483.31,-224 489.31,-224 489.31,-224 545.31,-224 545.31,-224 551.31,-224 557.31,-230 557.31,-236 557.31,-236 557.31,-248 557.31,-248 557.31,-254 551.31,-260 545.31,-260"/>
<text text-anchor="middle" x="517.31" y="-245" font-family="sans" font-size="10.00">qc_untreated</text>
<text text-anchor="middle" x="517.31" y="-234" font-family="sans" font-size="10.00">sample: test</text>
</g>
<!-- 12&#45;&gt;10 -->
<g id="edge25" class="edge">
<title>12&#45;&gt;10</title>
<path fill="none" stroke="grey" stroke-width="2" d="M504.88,-223.69C497.49,-213.39 487.97,-200.13 479.71,-188.63"/>
<polygon fill="grey" stroke="grey" stroke-width="2" points="482.38,-186.34 473.7,-180.26 476.69,-190.43 482.38,-186.34"/>
</g>
</g>
</svg>
